PathFileType	4	(X/Y/Z)	C:/Users/opensim2020/Desktop/walking_exp_matlab/subject06_walking23_straight_04.trc	
DataRate	CameraRate	NumFrames	NumMarkers	Units	OrigDataRate	OrigDataStartFrame	OrigNumFrames	
100.00	100.00	6	45	mm	100.00	2320	145	
Frame#	Time	LFHD			RFHD			LBHD			RBHD			C7			T10			CLAV			STRN			RBAK			LSHO			LUPA			LELB			LFRM			LWRA			LWRB			LFIN			RSHO			RUPA			RELB			RFRM			RWRA			RWRB			RFIN			LASI			RASI			LPSI			RPSI			LTHI			LKNE			LTIB			LANK			LHEE			LTOE			RTHI			RKNE			RTIB			RANK			RHEE			RTOE			*39			*40			*41			*42			*43			*44			
		X1	Y1	Z1	X2	Y2	Z2	X3	Y3	Z3	X4	Y4	Z4	X5	Y5	Z5	X6	Y6	Z6	X7	Y7	Z7	X8	Y8	Z8	X9	Y9	Z9	X10	Y10	Z10	X11	Y11	Z11	X12	Y12	Z12	X13	Y13	Z13	X14	Y14	Z14	X15	Y15	Z15	X16	Y16	Z16	X17	Y17	Z17	X18	Y18	Z18	X19	Y19	Z19	X20	Y20	Z20	X21	Y21	Z21	X22	Y22	Z22	X23	Y23	Z23	X24	Y24	Z24	X25	Y25	Z25	X26	Y26	Z26	X27	Y27	Z27	X28	Y28	Z28	X29	Y29	Z29	X30	Y30	Z30	X31	Y31	Z31	X32	Y32	Z32	X33	Y33	Z33	X34	Y34	Z34	X35	Y35	Z35	X36	Y36	Z36	X37	Y37	Z37	X38	Y38	Z38	X39	Y39	Z39	X40	Y40	Z40	X41	Y41	Z41	X42	Y42	Z42	X43	Y43	Z43	X44	Y44	Z44	X45	Y45	Z45	

55	0.540	-881.43323	69.24984	1658.12354	-1013.47913	67.08960	1653.98926	-886.51239	203.25839	1606.18896	-1015.52863	199.17064	1606.78076	-941.27380	205.39488	1449.95056	-954.10114	242.17421	1121.16797	-952.51312	95.06996	1372.98254	-950.75098	56.28706	1197.82556	-1013.87329	285.69620	1280.60815	-786.35211	138.61407	1404.21326	-708.94952	130.19395	1205.03381	-691.95428	126.35158	1092.52527	-673.45935	65.84100	954.86053	-723.73883	-19.33476	862.02557	-680.62433	32.31028	840.62933	-683.07355	-31.27442	777.35333	-1108.48535	158.60367	1406.64844	-1192.34595	235.32770	1220.73535	-1209.21191	248.02278	1099.58704	-1230.06543	242.28734	980.10590	-1209.22595	181.14565	840.02985	-1240.53088	242.35896	842.44574	-1247.94434	208.62569	765.64032	-850.94928	66.43519	961.96503	-1071.18982	66.79263	970.27014	-881.48102	225.60277	988.00037	-1049.40979	218.60080	986.24799	-807.63177	147.42125	647.30353	-834.91187	161.61143	483.26416	-852.35199	245.93153	237.85110	-905.83105	283.89926	72.87115	-951.44904	325.92151	64.74014	-908.27063	144.06721	33.95980	-1139.40796	25.51607	651.04242	-1119.42004	-28.12670	537.63715	-1110.11230	35.59398	280.85559	-1062.36755	73.46387	100.40342	-1011.34119	110.08569	81.15810	-1079.08557	-66.25236	42.49805	-940.32397	167.74915	1701.04688															 
56	0.550	-881.93109	55.94228	1657.12549	-1013.96948	53.90289	1652.77051	-886.71222	190.08717	1605.31885	-1015.55524	185.63986	1605.53955	-941.53296	192.38608	1448.98035	-954.70129	229.38005	1120.31421	-952.43988	82.11629	1371.73291	-950.30902	43.50002	1196.59778	-1014.20770	272.62054	1279.78992	-786.58356	126.06161	1403.45056	-708.68042	116.40281	1204.61670	-691.11047	111.77151	1092.38257	-672.88623	46.49383	956.74030	-723.57904	-42.58507	867.83252	-681.05475	8.87435	843.90259	-683.33997	-57.69213	783.56342	-1108.62659	145.10220	1405.38782	-1192.38245	222.95572	1219.98206	-1209.46301	236.80656	1098.90002	-1230.62671	233.72151	979.28027	-1210.47363	176.03302	837.51398	-1241.43005	237.43994	841.56879	-1249.07495	205.86235	763.80603	-850.74109	54.45183	960.66156	-1071.22217	53.48528	969.29065	-882.36932	213.45248	986.95227	-1050.26733	205.33125	985.28192	-808.10590	138.61806	646.59717	-835.28394	154.92271	482.64264	-852.90765	242.96193	238.40128	-906.52148	283.23050	73.95135	-952.31042	325.18744	66.36572	-908.42987	143.77893	33.67207	-1138.77161	13.46714	649.23645	-1117.99084	-39.01286	535.42542	-1108.67480	11.86853	274.84708	-1061.31506	36.24192	91.57734	-1009.79913	70.59502	70.50705	-1080.25745	-107.01180	42.76483	-940.80261	154.41101	1699.89172															 
57	0.560	-882.45709	42.73192	1656.08582	-1014.44989	40.78204	1651.49695	-887.07745	176.86903	1604.25659	-1015.91351	172.42708	1604.29907	-941.85449	179.20888	1447.79907	-955.49615	216.50087	1119.29602	-952.45428	68.94717	1370.58032	-949.98669	30.52464	1195.34741	-1014.53406	259.45514	1278.78137	-786.85345	113.53439	1402.60828	-708.43329	102.82998	1204.13245	-690.40924	96.94566	1092.16370	-673.02148	27.55175	958.72626	-723.51862	-65.16965	873.96960	-682.16132	-14.57761	847.32971	-683.79529	-83.50790	790.21265	-1108.82813	131.57547	1404.08398	-1192.58997	210.35559	1219.16443	-1209.78992	225.31750	1098.20154	-1231.24963	224.85739	978.54510	-1211.72766	170.58678	835.33765	-1242.48694	232.05733	840.97369	-1250.12122	202.86913	762.26233	-850.72589	42.29249	959.30176	-1071.31091	39.92541	968.11005	-883.50720	201.11790	985.94336	-1051.26428	191.92596	984.14966	-808.58289	129.51442	646.01624	-835.57861	148.05374	482.12109	-853.30969	240.10971	239.18608	-907.07593	282.56598	75.23824	-953.11713	324.93475	68.48418	-908.48108	143.62627	33.58563	-1137.86792	2.61210	646.56396	-1116.63696	-48.69513	532.35986	-1107.09338	-11.39043	269.17188	-1060.51416	-1.21845	84.29112	-1008.54517	30.63872	60.90550	-1080.99133	-147.56485	44.15781	-941.28503	141.26596	1698.84204															 
58	0.570	-883.01801	29.56414	1654.90247	-1014.96777	27.63817	1650.14441	-887.49426	163.72729	1603.13660	-1016.32947	159.32797	1602.94373	-942.41650	166.16022	1446.59094	-956.40216	203.59117	1118.19543	-952.56183	55.93339	1369.23962	-949.80835	17.52382	1194.01782	-1014.92627	246.13873	1277.57190	-787.18542	101.03265	1401.68579	-708.29529	89.40214	1203.61841	-689.88568	82.78630	1091.80347	-672.70465	8.94680	960.79657	-723.81787	-86.81336	880.28857	-682.86139	-37.08921	851.16779	-684.43799	-108.64805	797.19293	-1109.13208	117.98567	1402.74426	-1192.87573	197.65933	1218.28381	-1210.22998	213.71259	1097.50281	-1232.03198	215.70599	977.87726	-1213.10266	164.89253	833.26654	-1243.77686	226.05052	840.48267	-1251.31396	199.13852	760.94409	-850.85040	29.94772	957.97644	-1071.66821	26.43204	966.59418	-884.63568	188.62425	984.86517	-1052.36060	178.36044	982.82678	-809.01178	120.25734	645.39954	-835.71808	141.03642	481.62384	-853.43488	237.35530	240.16667	-907.39435	281.90918	76.61864	-953.54883	324.24365	70.48358	-908.47491	143.52525	33.48025	-1136.83472	-7.32308	643.21448	-1115.02771	-57.48737	528.46387	-1105.55066	-34.34736	263.88434	-1059.77966	-38.19632	78.50869	-1007.53241	-8.01276	53.59518	-1081.17896	-186.72345	47.13938	-941.84412	128.05556	1697.65063															 
59	0.580	-883.63098	16.29555	1653.68677	-1015.56812	14.49848	1648.76013	-887.95569	150.51936	1601.91003	-1016.75824	146.23978	1601.53455	-942.90845	152.97220	1445.17065	-957.30389	190.51276	1116.86133	-952.69885	42.61404	1367.93811	-949.69519	4.41521	1192.63110	-1015.43274	232.75999	1276.22681	-787.66943	88.58382	1400.67761	-708.12378	76.20276	1203.01270	-689.70831	68.49793	1091.40137	-672.76611	-9.13001	962.95502	-724.15845	-108.02346	886.85565	-684.06409	-59.55275	855.10571	-685.29626	-133.08817	804.52521	-1109.46228	104.33482	1401.30823	-1193.26782	184.86440	1217.38257	-1210.72974	201.93596	1096.80359	-1232.86133	206.24312	977.29779	-1214.58398	158.74303	831.49725	-1245.22278	219.52365	840.22607	-1252.58545	194.76141	759.83502	-851.05475	17.52236	956.58765	-1072.07532	12.91508	964.89410	-885.76990	175.95097	983.73114	-1053.67419	164.97374	981.57031	-808.97046	110.85601	644.84717	-835.67419	133.66275	481.20953	-853.48834	234.22653	241.26602	-907.41083	281.26453	78.21533	-953.56232	323.61597	72.70228	-908.42072	143.47229	33.40101	-1135.62964	-16.42369	639.35480	-1113.05652	-65.65097	523.88507	-1103.84998	-56.86150	259.35098	-1059.13477	-74.07857	74.54125	-1006.71210	-45.59903	48.17827	-1080.74402	-224.38832	51.23740	-942.52716	114.87996	1696.34399															 
60	0.590	-884.32880	3.19633	1652.36584	-1016.27203	1.38098	1647.29456	-888.50891	137.30890	1600.55737	-1017.66095	133.56329	1600.17212	-943.55322	139.82631	1443.82349	-958.29968	177.30101	1115.45447	-952.96350	29.49808	1366.46838	-949.66278	-8.77346	1191.19006	-1016.07581	219.25417	1274.76733	-788.16113	76.04337	1399.53979	-708.07446	63.22553	1202.33472	-689.29291	55.48549	1090.87244	-673.20667	-26.45054	965.17053	-724.60461	-128.59480	893.56750	-685.19586	-81.09468	859.53925	-686.29480	-156.84921	812.05615	-1109.93140	90.65469	1399.88416	-1193.78174	171.98048	1216.46228	-1211.34094	190.12427	1096.11890	-1233.83801	196.40930	976.74951	-1215.80554	151.62915	829.84778	-1246.78345	212.51883	840.06146	-1253.99255	189.68230	758.89508	-851.33331	4.80765	955.16473	-1072.38782	-1.01928	963.03284	-887.04456	163.22322	982.50836	-1054.67957	150.90958	980.05505	-809.35388	100.83257	644.20490	-835.62024	125.79420	480.70782	-853.12286	230.85544	242.48830	-906.99213	280.47256	79.94384	-952.90527	322.55444	74.79469	-908.36157	143.38004	33.32337	-1134.71838	-25.16856	635.31360	-1111.51306	-74.00440	519.10413	-1102.45422	-78.74432	255.86986	-1058.13196	-108.07578	72.36047	-1006.00433	-81.38937	44.95932	-1079.56250	-260.04294	56.21896	-943.19757	101.71528	1694.94092															 
